<svg xmlns="http://www.w3.org/2000/svg" width="17" height="22" viewBox="0 0 17 22">
  <path fill-rule="evenodd" d="M13.2949364,20.0981594 L3.06871809,20.0981594 C2.00678628,20.0981594 1.14554035,19.3673176 1.12881501,18.4668225 L2.24926736,5.31601113 L4.13899443,5.31601113 L4.13899443,7.099617 C4.13899443,7.42588062 4.38983818,7.68689151 4.70339287,7.68689151 C5.01696569,7.68689151 5.26780944,7.42588062 5.26780944,7.099617 L5.26780944,5.31601113 L11.0916547,5.31601113 L11.0916547,7.099617 C11.0916547,7.42588062 11.3424984,7.68689151 11.6560712,7.68689151 C11.9696259,7.68689151 12.2204697,7.42588062 12.2204697,7.099617 L12.2204697,5.31601113 L14.1101967,5.31601113 L15.2348214,18.4668225 C15.218096,19.3673176 14.3526778,20.0981594 13.2949364,20.0981594 M8.18182725,1.17456788 C9.76634416,1.17456788 11.058204,2.49704445 11.0916547,4.137083 L5.27198171,4.137083 C5.30543238,2.49704445 6.59731034,1.17456788 8.18182725,1.17456788 M16.3594641,18.3885079 L15.1888357,4.67216665 C15.1637477,4.36764766 14.9170763,4.137083 14.6286096,4.137083 L12.2204697,4.137083 C12.187019,1.84885859 10.3892813,0 8.18182725,0 C5.97435509,0 4.17661736,1.84885859 4.14316669,4.137083 L1.73504493,4.137083 C1.44238784,4.137083 1.19988862,4.36764766 1.17480062,4.67216665 L0.00419040397,18.3885079 C0.00419040397,18.4059111 0,18.4233144 0,18.4407176 C0,20.0024604 1.3754865,21.2727273 3.06871809,21.2727273 L13.2949364,21.2727273 C14.988168,21.2727273 16.3636364,20.0024604 16.3636364,18.4407176 C16.3636364,18.4233144 16.3636364,18.4059111 16.3594641,18.3885079"/>
</svg>
