<?xml version="1.0" encoding="UTF-8"?>
<svg width="132px" height="36px" viewBox="0 0 132 36" version="1.1" xmlns="http://www.w3.org/2000/svg" xmlns:xlink="http://www.w3.org/1999/xlink">
    <!-- Generator: Sketch 56.2 (81672) - https://sketch.com -->
    <title>Group 3</title>
    <desc>Created with Sketch.</desc>
    <defs>
        <polygon id="path-1" points="0 0 132 0 132 36 0 36"></polygon>
    </defs>
    <g id="Page-1" stroke="none" stroke-width="1" fill="none" fill-rule="evenodd">
        <g id="Desktop-HD---Vista-404" transform="translate(-1614.000000, -490.000000)">
            <g id="Group-2" transform="translate(1209.000000, 490.000000)">
                <g id="Group-3" transform="translate(405.000000, 0.000000)">
                    <mask id="mask-2" fill="white">
                        <use xlink:href="#path-1"></use>
                    </mask>
                    <g id="Clip-2"></g>
                    <path d="M131.95132,6.94095834 C131.888743,6.83922746 131.775908,6.77636545 131.65371,6.77636545 L124.400686,6.77636545 C124.27159,6.77636545 124.153335,6.84594553 124.093714,6.95727367 L117.038769,20.0867953 L110.009446,6.95775353 C109.949825,6.8464254 109.83157,6.77636545 109.702474,6.77636545 L99.1860823,6.77636545 C99.0909849,6.77636545 98.9998294,6.81475446 98.9347887,6.88241509 L89.0219947,17.1140462 L89.0219947,7.11370889 C89.0219947,7.03405169 88.9934162,6.95727367 88.9406938,6.89633111 L83.0830889,0.120190825 C82.9894697,0.011741869 82.8352444,-0.0280867298 82.699743,0.0203793964 C82.5632561,0.0693253853 82.4721005,0.195529259 82.4721005,0.337568599 L82.4721005,35.6626566 C82.4721005,35.8488433 82.6273113,36 82.8184915,36 L88.6760964,36 C88.8672766,36 89.0219947,35.8488433 89.0219947,35.6626566 L89.0219947,25.7376577 L98.9352814,35.8949101 C99.0008148,35.9620909 99.0914776,36 99.1860823,36 L107.014125,36 C107.016096,36 107.018067,36 107.019545,36 C107.210725,36 107.365936,35.8488433 107.365936,35.6626566 C107.365936,35.5546875 107.313213,35.4582351 107.231913,35.3963328 L93.5058611,21.4275315 L103.962139,10.7261148 L113.763083,28.2842887 L113.763083,35.6626566 C113.763083,35.8488433 113.918294,36 114.109474,36 L119.966586,36 C120.157766,36 120.312484,35.8488433 120.312484,35.6626566 L120.312484,28.2838088 L131.958711,7.27398301 C132.016361,7.16937295 132.013405,7.04268922 131.95132,6.94095834 M71.9759112,27.1921213 C70.3725594,28.8217348 68.3848762,29.6480583 66.0680476,29.6480583 C63.7477699,29.6480583 61.7305227,28.8202952 60.0714921,27.1873227 C58.413447,25.5730648 57.5728452,23.6085071 57.5728452,21.3483541 C57.5728452,19.0906004 58.4119688,17.1543547 60.0714921,15.5890428 C61.7295372,13.974305 63.7472771,13.1551795 66.0680476,13.1551795 C68.3853689,13.1551795 70.3735448,13.9728654 71.9862586,15.5943213 C73.6590857,17.1553144 74.5075712,19.0915601 74.5075712,21.3483541 C74.5075712,23.6080273 73.6576075,25.5721051 71.9759112,27.1921213 M73.4275013,8.60944072 C74.1178197,8.14685314 74.7746322,7.61276603 75.3954753,7.0043002 C77.3028431,5.11076224 78.5203853,2.90291425 79.0155815,0.441218928 C79.0352908,0.342367225 79.0086832,0.240156484 78.9431498,0.162418737 C78.8771236,0.0846809897 78.7790699,0.0395739019 78.675596,0.0395739019 L73.2993909,0.0395739019 C73.1540348,0.0395739019 73.0244461,0.127868627 72.9741874,0.260790577 C72.6056234,1.23971036 72.0069533,2.13273472 71.1885245,2.92210876 C69.7753675,4.3573779 68.0237032,5.08532952 65.9823121,5.08532952 C63.9379646,5.08532952 62.1606782,4.35593831 60.698248,2.91683027 C59.8941084,2.13369445 59.3013511,1.24067008 58.936729,0.261750302 C58.8874557,0.12834849 58.7573743,0.0395739019 58.6115255,0.0395739019 L53.215611,0.0395739019 C53.1126299,0.0395739019 53.0140834,0.0846809897 52.94855,0.162418737 C52.8830165,0.240156484 52.856409,0.342367225 52.8761183,0.441218928 C53.3708218,2.90339412 54.5888567,5.1112421 56.5011519,7.00909883 C57.160428,7.63915847 57.8556737,8.1910005 58.5849179,8.66414506 C57.4531112,9.29756374 56.3868379,10.0850183 55.3939818,11.0337068 C52.4937578,13.8586581 51.0229511,17.3290247 51.0229511,21.3483541 C51.0229511,25.366244 52.4927723,28.8625231 55.3964454,31.745058 C58.3513627,34.5685698 61.941905,36 66.0680476,36 C70.212914,36 73.776356,34.5671302 76.6613052,31.7402594 C79.560051,28.8625231 81.0298723,25.366244 81.0298723,21.3483541 C81.0298723,17.3290247 79.5595583,13.8586581 76.6593343,11.0346665 C75.6625363,10.0576662 74.5829592,9.25149693 73.4275013,8.60944072 M49.5807228,6.77636545 L43.7231179,6.77636545 C43.5319377,6.77636545 43.3772197,6.92752218 43.3772197,7.11370889 L43.3772197,24.2270501 C43.3772197,25.1488662 43.1584464,26.0586858 42.7312473,26.9248378 C41.7832298,28.7209637 40.2005728,29.5943137 37.8931061,29.5943137 C35.5516409,29.5943137 33.9793312,28.723363 33.0796016,26.9190795 C32.5982018,26.0495684 32.3542992,25.1440676 32.3542992,24.2270501 L32.3542992,7.11370889 C32.3542992,6.92752218 32.1995812,6.77636545 32.0084009,6.77636545 L26.1507961,6.77636545 C25.9596158,6.77636545 25.8048978,6.92752218 25.8048978,7.11370889 L25.8048978,24.2270501 C25.8048978,26.1743327 26.3242379,28.1456084 27.346658,30.0813742 C29.3525723,34.0085701 32.9012324,36 37.8931061,36 C42.8465467,36 46.4035832,34.0100096 48.4686254,30.0784951 C49.4363522,28.1393702 49.9271138,26.1704938 49.9271138,24.2270501 L49.9271138,7.11370889 C49.9271138,6.92752218 49.7719031,6.77636545 49.5807228,6.77636545 M23.8300256,6.77636545 L17.9729135,6.77636545 C17.7817332,6.77636545 17.6270152,6.92752218 17.6270152,7.11370889 L17.6270152,18.1587072 L6.54940141,18.1587072 L6.54940141,7.11370889 C6.54940141,6.92752218 6.39468338,6.77636545 6.20350314,6.77636545 L0.345898269,6.77636545 C0.154718029,6.77636545 0,6.92752218 0,7.11370889 L0,35.6626566 C0,35.8488433 0.154718029,36 0.345898269,36 L6.20350314,36 C6.39468338,36 6.54940141,35.8488433 6.54940141,35.6626566 L6.54940141,24.5375212 L17.6270152,24.5375212 L17.6270152,35.6626566 C17.6270152,35.8488433 17.7817332,36 17.9729135,36 L23.8300256,36 C24.0212059,36 24.1764166,35.8488433 24.1764166,35.6626566 L24.1764166,7.11370889 C24.1764166,6.92752218 24.0212059,6.77636545 23.8300256,6.77636545" id="Fill-1" fill="#1D1D1B" mask="url(#mask-2)"></path>
                </g>
            </g>
        </g>
    </g>
</svg>